<svg xmlns="http://www.w3.org/2000/svg" width="24" height="24" viewBox="0 0 24 24" fill="none" aria-hidden="true">
  <rect x="1.5" y="1.5" width="21" height="21" rx="5" fill="#111111"/>
  <path d="M12 5.2C8.25 5.2 5.2 8.32 5.2 12.16C5.2 15.23 7.16 17.83 9.88 18.75C10.22 18.81 10.35 18.6 10.35 18.43V17.41C8.44 17.84 8.03 16.58 8.03 16.58C7.72 15.77 7.27 15.55 7.27 15.55C6.66 15.13 7.31 15.14 7.31 15.14C7.98 15.19 8.34 15.85 8.34 15.85C8.95 16.91 9.94 16.61 10.33 16.43C10.39 15.98 10.57 15.67 10.77 15.49C9.24 15.31 7.63 14.7 7.63 11.97C7.63 11.19 7.9 10.55 8.36 10.04C8.29 9.86 8.06 9.14 8.43 8.16C8.43 8.16 9.01 7.97 10.33 8.89C10.88 8.73 11.47 8.65 12.05 8.65C12.63 8.65 13.22 8.73 13.77 8.89C15.09 7.97 15.67 8.16 15.67 8.16C16.04 9.14 15.81 9.86 15.74 10.04C16.2 10.55 16.47 11.19 16.47 11.97C16.47 14.71 14.86 15.3 13.33 15.48C13.59 15.71 13.82 16.15 13.82 16.82V18.43C13.82 18.6 13.95 18.81 14.29 18.75C17.01 17.83 18.97 15.23 18.97 12.16C18.97 8.32 15.92 5.2 12 5.2Z" fill="#FFFFFF"/>
</svg>
